<mxfile host="app.diagrams.net" modified="2022-10-03T09:14:58.449Z" agent="5.0 (Windows NT 6.2; Win64; x64) AppleWebKit/537.36 (KHTML, like Gecko) Chrome/100.0.4896.75 Safari/537.36" etag="Kx4d5DeVV9qDUffigDag" version="20.3.6" type="github">
  <diagram id="1l88YDc0GV5pM2h5UwvV" name="第 1 页">
    <mxGraphModel dx="858" dy="481" grid="1" gridSize="10" guides="1" tooltips="1" connect="1" arrows="1" fold="1" page="1" pageScale="1" pageWidth="827" pageHeight="1169" math="1" shadow="0">
      <root>
        <mxCell id="0" />
        <mxCell id="1" parent="0" />
        <mxCell id="Js2SkNxUxSmoYFZeB9Ga-3" value="Multi-objective Critic" style="rounded=0;whiteSpace=wrap;html=1;dashed=1;verticalAlign=top;" vertex="1" parent="1">
          <mxGeometry x="250" y="200" width="320" height="220" as="geometry" />
        </mxCell>
        <mxCell id="Js2SkNxUxSmoYFZeB9Ga-19" value="Actor Network" style="rounded=0;whiteSpace=wrap;html=1;dashed=1;verticalAlign=top;" vertex="1" parent="1">
          <mxGeometry x="10" y="200" width="216" height="220" as="geometry" />
        </mxCell>
        <mxCell id="Js2SkNxUxSmoYFZeB9Ga-34" style="edgeStyle=orthogonalEdgeStyle;rounded=0;orthogonalLoop=1;jettySize=auto;html=1;entryX=0;entryY=0.75;entryDx=0;entryDy=0;strokeColor=#FF0000;strokeWidth=2;fontSize=15;" edge="1" parent="1" source="Js2SkNxUxSmoYFZeB9Ga-1" target="Js2SkNxUxSmoYFZeB9Ga-30">
          <mxGeometry relative="1" as="geometry">
            <Array as="points">
              <mxPoint x="30" y="290" />
              <mxPoint x="30" y="500" />
            </Array>
          </mxGeometry>
        </mxCell>
        <mxCell id="Js2SkNxUxSmoYFZeB9Ga-35" value="$$a$$" style="edgeLabel;html=1;align=center;verticalAlign=middle;resizable=0;points=[];fontSize=15;labelBackgroundColor=none;" vertex="1" connectable="0" parent="Js2SkNxUxSmoYFZeB9Ga-34">
          <mxGeometry x="-0.0874" relative="1" as="geometry">
            <mxPoint x="-10" y="-22" as="offset" />
          </mxGeometry>
        </mxCell>
        <mxCell id="Js2SkNxUxSmoYFZeB9Ga-1" value="MTL Actor" style="rounded=0;whiteSpace=wrap;html=1;" vertex="1" parent="1">
          <mxGeometry x="70" y="260" width="100" height="60" as="geometry" />
        </mxCell>
        <mxCell id="Js2SkNxUxSmoYFZeB9Ga-36" style="edgeStyle=orthogonalEdgeStyle;rounded=0;orthogonalLoop=1;jettySize=auto;html=1;entryX=1;entryY=0.5;entryDx=0;entryDy=0;strokeColor=#0000FF;strokeWidth=2;fontSize=15;" edge="1" parent="1" source="Js2SkNxUxSmoYFZeB9Ga-2" target="Js2SkNxUxSmoYFZeB9Ga-30">
          <mxGeometry relative="1" as="geometry">
            <Array as="points">
              <mxPoint x="240" y="290" />
              <mxPoint x="240" y="490" />
            </Array>
          </mxGeometry>
        </mxCell>
        <mxCell id="Js2SkNxUxSmoYFZeB9Ga-40" value="$$\bar{Q}$$" style="edgeLabel;html=1;align=center;verticalAlign=middle;resizable=0;points=[];fontSize=15;labelBackgroundColor=none;" vertex="1" connectable="0" parent="Js2SkNxUxSmoYFZeB9Ga-36">
          <mxGeometry x="-0.0011" y="-3" relative="1" as="geometry">
            <mxPoint x="-11" y="20" as="offset" />
          </mxGeometry>
        </mxCell>
        <mxCell id="Js2SkNxUxSmoYFZeB9Ga-2" value="Critic 1" style="rounded=0;whiteSpace=wrap;html=1;" vertex="1" parent="1">
          <mxGeometry x="280" y="260" width="100" height="60" as="geometry" />
        </mxCell>
        <mxCell id="Js2SkNxUxSmoYFZeB9Ga-39" style="edgeStyle=orthogonalEdgeStyle;rounded=0;orthogonalLoop=1;jettySize=auto;html=1;strokeColor=#0000FF;strokeWidth=2;fontSize=15;endArrow=none;endFill=0;" edge="1" parent="1" source="Js2SkNxUxSmoYFZeB9Ga-4" target="Js2SkNxUxSmoYFZeB9Ga-2">
          <mxGeometry relative="1" as="geometry" />
        </mxCell>
        <mxCell id="Js2SkNxUxSmoYFZeB9Ga-4" value="Critic 2" style="rounded=0;whiteSpace=wrap;html=1;" vertex="1" parent="1">
          <mxGeometry x="420" y="260" width="100" height="60" as="geometry" />
        </mxCell>
        <mxCell id="Js2SkNxUxSmoYFZeB9Ga-11" style="edgeStyle=orthogonalEdgeStyle;rounded=0;orthogonalLoop=1;jettySize=auto;html=1;exitX=0.5;exitY=1;exitDx=0;exitDy=0;" edge="1" parent="1" source="Js2SkNxUxSmoYFZeB9Ga-6" target="Js2SkNxUxSmoYFZeB9Ga-7">
          <mxGeometry relative="1" as="geometry" />
        </mxCell>
        <mxCell id="Js2SkNxUxSmoYFZeB9Ga-6" value="Replay Memory" style="rounded=1;whiteSpace=wrap;html=1;" vertex="1" parent="1">
          <mxGeometry x="235" y="60" width="110" height="40" as="geometry" />
        </mxCell>
        <mxCell id="Js2SkNxUxSmoYFZeB9Ga-8" style="edgeStyle=orthogonalEdgeStyle;rounded=0;orthogonalLoop=1;jettySize=auto;html=1;entryX=0.5;entryY=0;entryDx=0;entryDy=0;strokeWidth=2;strokeColor=#FF3333;" edge="1" parent="1" source="Js2SkNxUxSmoYFZeB9Ga-7" target="Js2SkNxUxSmoYFZeB9Ga-1">
          <mxGeometry relative="1" as="geometry" />
        </mxCell>
        <mxCell id="Js2SkNxUxSmoYFZeB9Ga-14" value="input" style="edgeLabel;html=1;align=center;verticalAlign=middle;resizable=0;points=[];fontSize=15;" vertex="1" connectable="0" parent="Js2SkNxUxSmoYFZeB9Ga-8">
          <mxGeometry x="0.5955" y="3" relative="1" as="geometry">
            <mxPoint x="-3" y="-36" as="offset" />
          </mxGeometry>
        </mxCell>
        <mxCell id="Js2SkNxUxSmoYFZeB9Ga-9" style="edgeStyle=orthogonalEdgeStyle;rounded=0;orthogonalLoop=1;jettySize=auto;html=1;entryX=0.5;entryY=0;entryDx=0;entryDy=0;strokeWidth=2;strokeColor=#3333FF;" edge="1" parent="1" source="Js2SkNxUxSmoYFZeB9Ga-7" target="Js2SkNxUxSmoYFZeB9Ga-2">
          <mxGeometry relative="1" as="geometry">
            <Array as="points">
              <mxPoint x="330" y="135" />
            </Array>
          </mxGeometry>
        </mxCell>
        <mxCell id="Js2SkNxUxSmoYFZeB9Ga-10" style="edgeStyle=orthogonalEdgeStyle;rounded=0;orthogonalLoop=1;jettySize=auto;html=1;exitX=1;exitY=0.5;exitDx=0;exitDy=0;strokeWidth=2;strokeColor=#3333FF;" edge="1" parent="1" source="Js2SkNxUxSmoYFZeB9Ga-7" target="Js2SkNxUxSmoYFZeB9Ga-4">
          <mxGeometry relative="1" as="geometry" />
        </mxCell>
        <mxCell id="Js2SkNxUxSmoYFZeB9Ga-15" value="input" style="edgeLabel;html=1;align=center;verticalAlign=middle;resizable=0;points=[];fontSize=15;" vertex="1" connectable="0" parent="Js2SkNxUxSmoYFZeB9Ga-10">
          <mxGeometry x="-0.6625" y="1" relative="1" as="geometry">
            <mxPoint x="24" y="1" as="offset" />
          </mxGeometry>
        </mxCell>
        <mxCell id="Js2SkNxUxSmoYFZeB9Ga-7" value="transition" style="text;html=1;strokeColor=none;fillColor=none;align=center;verticalAlign=middle;whiteSpace=wrap;rounded=0;" vertex="1" parent="1">
          <mxGeometry x="260" y="120" width="60" height="30" as="geometry" />
        </mxCell>
        <mxCell id="Js2SkNxUxSmoYFZeB9Ga-12" value="&lt;font style=&quot;font-size: 15px;&quot;&gt;......&lt;/font&gt;" style="text;html=1;strokeColor=none;fillColor=none;align=center;verticalAlign=middle;whiteSpace=wrap;rounded=0;strokeWidth=1;" vertex="1" parent="1">
          <mxGeometry x="520" y="310" width="60" height="30" as="geometry" />
        </mxCell>
        <mxCell id="Js2SkNxUxSmoYFZeB9Ga-43" style="edgeStyle=orthogonalEdgeStyle;rounded=0;orthogonalLoop=1;jettySize=auto;html=1;entryX=0.5;entryY=0;entryDx=0;entryDy=0;strokeColor=#0000FF;strokeWidth=2;fontSize=15;endArrow=block;endFill=1;" edge="1" parent="1" source="Js2SkNxUxSmoYFZeB9Ga-16" target="Js2SkNxUxSmoYFZeB9Ga-31">
          <mxGeometry relative="1" as="geometry" />
        </mxCell>
        <mxCell id="Js2SkNxUxSmoYFZeB9Ga-16" value="Critic 1 Target" style="rounded=0;whiteSpace=wrap;html=1;dashed=1;dashPattern=1 1;" vertex="1" parent="1">
          <mxGeometry x="280" y="340" width="100" height="60" as="geometry" />
        </mxCell>
        <mxCell id="Js2SkNxUxSmoYFZeB9Ga-44" style="edgeStyle=orthogonalEdgeStyle;rounded=0;orthogonalLoop=1;jettySize=auto;html=1;strokeColor=#0000FF;strokeWidth=2;fontSize=15;endArrow=block;endFill=1;entryX=0.5;entryY=0;entryDx=0;entryDy=0;" edge="1" parent="1" source="Js2SkNxUxSmoYFZeB9Ga-17" target="Js2SkNxUxSmoYFZeB9Ga-31">
          <mxGeometry relative="1" as="geometry">
            <mxPoint x="420" y="450.0000000000001" as="targetPoint" />
          </mxGeometry>
        </mxCell>
        <mxCell id="Js2SkNxUxSmoYFZeB9Ga-45" value="$$Q&#39;_i$$" style="edgeLabel;html=1;align=center;verticalAlign=middle;resizable=0;points=[];fontSize=15;labelBackgroundColor=none;" vertex="1" connectable="0" parent="Js2SkNxUxSmoYFZeB9Ga-44">
          <mxGeometry x="0.5172" y="-4" relative="1" as="geometry">
            <mxPoint x="4" y="-15" as="offset" />
          </mxGeometry>
        </mxCell>
        <mxCell id="Js2SkNxUxSmoYFZeB9Ga-17" value="Critic 2 Target" style="rounded=0;whiteSpace=wrap;html=1;dashed=1;dashPattern=1 1;" vertex="1" parent="1">
          <mxGeometry x="420" y="340" width="100" height="60" as="geometry" />
        </mxCell>
        <mxCell id="Js2SkNxUxSmoYFZeB9Ga-41" style="edgeStyle=orthogonalEdgeStyle;rounded=0;orthogonalLoop=1;jettySize=auto;html=1;entryX=0;entryY=0.5;entryDx=0;entryDy=0;strokeColor=#FF0000;strokeWidth=2;fontSize=15;endArrow=block;endFill=1;" edge="1" parent="1" source="Js2SkNxUxSmoYFZeB9Ga-18" target="Js2SkNxUxSmoYFZeB9Ga-31">
          <mxGeometry relative="1" as="geometry" />
        </mxCell>
        <mxCell id="Js2SkNxUxSmoYFZeB9Ga-42" value="$$a&#39;$$" style="edgeLabel;html=1;align=center;verticalAlign=middle;resizable=0;points=[];fontSize=15;labelBackgroundColor=none;" vertex="1" connectable="0" parent="Js2SkNxUxSmoYFZeB9Ga-41">
          <mxGeometry x="-0.7655" y="2" relative="1" as="geometry">
            <mxPoint y="-8" as="offset" />
          </mxGeometry>
        </mxCell>
        <mxCell id="Js2SkNxUxSmoYFZeB9Ga-18" value="Actor Target" style="rounded=0;whiteSpace=wrap;html=1;dashed=1;dashPattern=1 1;" vertex="1" parent="1">
          <mxGeometry x="70" y="340" width="100" height="60" as="geometry" />
        </mxCell>
        <mxCell id="Js2SkNxUxSmoYFZeB9Ga-25" value="" style="shape=singleArrow;direction=south;whiteSpace=wrap;html=1;dashed=1;dashPattern=1 1;strokeWidth=1;fontSize=15;" vertex="1" parent="1">
          <mxGeometry x="108" y="320" width="20" height="20" as="geometry" />
        </mxCell>
        <mxCell id="Js2SkNxUxSmoYFZeB9Ga-26" value="" style="shape=singleArrow;direction=south;whiteSpace=wrap;html=1;dashed=1;dashPattern=1 1;strokeWidth=1;fontSize=15;" vertex="1" parent="1">
          <mxGeometry x="320" y="320" width="20" height="20" as="geometry" />
        </mxCell>
        <mxCell id="Js2SkNxUxSmoYFZeB9Ga-28" value="" style="shape=singleArrow;direction=south;whiteSpace=wrap;html=1;dashed=1;dashPattern=1 1;strokeWidth=1;fontSize=15;" vertex="1" parent="1">
          <mxGeometry x="460" y="320" width="20" height="20" as="geometry" />
        </mxCell>
        <mxCell id="Js2SkNxUxSmoYFZeB9Ga-29" value="&lt;font style=&quot;font-size: 12px;&quot;&gt;soft update&lt;/font&gt;" style="text;html=1;strokeColor=none;fillColor=none;align=center;verticalAlign=middle;whiteSpace=wrap;rounded=0;dashed=1;dashPattern=1 1;strokeWidth=1;fontSize=15;" vertex="1" parent="1">
          <mxGeometry x="28" y="317.5" width="100" height="25" as="geometry" />
        </mxCell>
        <mxCell id="Js2SkNxUxSmoYFZeB9Ga-46" style="edgeStyle=orthogonalEdgeStyle;rounded=0;orthogonalLoop=1;jettySize=auto;html=1;strokeColor=#00FF00;strokeWidth=2;fontSize=15;endArrow=block;endFill=1;" edge="1" parent="1" source="Js2SkNxUxSmoYFZeB9Ga-30">
          <mxGeometry relative="1" as="geometry">
            <mxPoint x="125" y="420.0000000000001" as="targetPoint" />
          </mxGeometry>
        </mxCell>
        <mxCell id="Js2SkNxUxSmoYFZeB9Ga-30" value="PG loss" style="rounded=0;whiteSpace=wrap;html=1;dashed=1;dashPattern=1 1;strokeWidth=1;fontSize=12;" vertex="1" parent="1">
          <mxGeometry x="70" y="470" width="110" height="40" as="geometry" />
        </mxCell>
        <mxCell id="Js2SkNxUxSmoYFZeB9Ga-47" style="edgeStyle=orthogonalEdgeStyle;rounded=0;orthogonalLoop=1;jettySize=auto;html=1;strokeColor=#00FF00;strokeWidth=2;fontSize=15;endArrow=block;endFill=1;" edge="1" parent="1" source="Js2SkNxUxSmoYFZeB9Ga-31">
          <mxGeometry relative="1" as="geometry">
            <mxPoint x="530" y="420" as="targetPoint" />
            <Array as="points">
              <mxPoint x="530" y="490" />
            </Array>
          </mxGeometry>
        </mxCell>
        <mxCell id="Js2SkNxUxSmoYFZeB9Ga-31" value="TD loss" style="rounded=0;whiteSpace=wrap;html=1;dashed=1;dashPattern=1 1;strokeWidth=1;fontSize=12;" vertex="1" parent="1">
          <mxGeometry x="340" y="470" width="110" height="40" as="geometry" />
        </mxCell>
        <mxCell id="Js2SkNxUxSmoYFZeB9Ga-48" value="&lt;font style=&quot;font-size: 12px;&quot;&gt;update&lt;/font&gt;" style="text;html=1;strokeColor=none;fillColor=none;align=center;verticalAlign=middle;whiteSpace=wrap;rounded=0;dashed=1;dashPattern=1 1;labelBackgroundColor=none;strokeWidth=1;fontSize=15;" vertex="1" parent="1">
          <mxGeometry x="70" y="440" width="60" height="30" as="geometry" />
        </mxCell>
        <mxCell id="Js2SkNxUxSmoYFZeB9Ga-49" value="&lt;font style=&quot;font-size: 12px;&quot;&gt;update&lt;/font&gt;" style="text;html=1;strokeColor=none;fillColor=none;align=center;verticalAlign=middle;whiteSpace=wrap;rounded=0;dashed=1;dashPattern=1 1;labelBackgroundColor=none;strokeWidth=1;fontSize=15;" vertex="1" parent="1">
          <mxGeometry x="480" y="460" width="60" height="30" as="geometry" />
        </mxCell>
        <mxCell id="Js2SkNxUxSmoYFZeB9Ga-50" value="Critic Structure" style="rounded=0;whiteSpace=wrap;html=1;dashed=1;labelBackgroundColor=none;strokeWidth=1;fontSize=12;verticalAlign=top;" vertex="1" parent="1">
          <mxGeometry x="655" y="150" width="355" height="355" as="geometry" />
        </mxCell>
        <mxCell id="Js2SkNxUxSmoYFZeB9Ga-51" value="Cate Emb" style="rounded=0;whiteSpace=wrap;html=1;labelBackgroundColor=none;strokeWidth=1;fontSize=12;" vertex="1" parent="1">
          <mxGeometry x="720" y="380" width="80" height="30" as="geometry" />
        </mxCell>
        <mxCell id="Js2SkNxUxSmoYFZeB9Ga-63" style="edgeStyle=orthogonalEdgeStyle;rounded=0;orthogonalLoop=1;jettySize=auto;html=1;strokeColor=#FF3399;strokeWidth=2;fontSize=12;endArrow=block;endFill=1;entryX=0.5;entryY=1;entryDx=0;entryDy=0;" edge="1" parent="1" source="Js2SkNxUxSmoYFZeB9Ga-52" target="Js2SkNxUxSmoYFZeB9Ga-61">
          <mxGeometry relative="1" as="geometry">
            <Array as="points">
              <mxPoint x="840" y="358" />
            </Array>
          </mxGeometry>
        </mxCell>
        <mxCell id="Js2SkNxUxSmoYFZeB9Ga-52" value="Num Emb" style="rounded=0;whiteSpace=wrap;html=1;labelBackgroundColor=none;strokeWidth=1;fontSize=12;" vertex="1" parent="1">
          <mxGeometry x="800" y="380" width="80" height="30" as="geometry" />
        </mxCell>
        <mxCell id="Js2SkNxUxSmoYFZeB9Ga-56" style="edgeStyle=orthogonalEdgeStyle;rounded=0;orthogonalLoop=1;jettySize=auto;html=1;entryX=0.5;entryY=1;entryDx=0;entryDy=0;strokeColor=#FF3399;strokeWidth=2;fontSize=12;endArrow=block;endFill=1;" edge="1" parent="1" source="Js2SkNxUxSmoYFZeB9Ga-53" target="Js2SkNxUxSmoYFZeB9Ga-51">
          <mxGeometry relative="1" as="geometry" />
        </mxCell>
        <mxCell id="Js2SkNxUxSmoYFZeB9Ga-53" value="Cate Features" style="rounded=1;whiteSpace=wrap;html=1;labelBackgroundColor=none;strokeWidth=1;fontSize=12;" vertex="1" parent="1">
          <mxGeometry x="690" y="450" width="90" height="30" as="geometry" />
        </mxCell>
        <mxCell id="Js2SkNxUxSmoYFZeB9Ga-57" style="edgeStyle=orthogonalEdgeStyle;rounded=0;orthogonalLoop=1;jettySize=auto;html=1;entryX=0.5;entryY=1;entryDx=0;entryDy=0;strokeColor=#FF3399;strokeWidth=2;fontSize=12;endArrow=block;endFill=1;" edge="1" parent="1" source="Js2SkNxUxSmoYFZeB9Ga-54" target="Js2SkNxUxSmoYFZeB9Ga-52">
          <mxGeometry relative="1" as="geometry" />
        </mxCell>
        <mxCell id="Js2SkNxUxSmoYFZeB9Ga-54" value="Num Features" style="rounded=1;whiteSpace=wrap;html=1;labelBackgroundColor=none;strokeWidth=1;fontSize=12;" vertex="1" parent="1">
          <mxGeometry x="792.5" y="450" width="95" height="30" as="geometry" />
        </mxCell>
        <mxCell id="Js2SkNxUxSmoYFZeB9Ga-61" value="Bottom MLP" style="rounded=0;whiteSpace=wrap;html=1;labelBackgroundColor=none;strokeWidth=1;fontSize=12;" vertex="1" parent="1">
          <mxGeometry x="760" y="320" width="160" height="27.5" as="geometry" />
        </mxCell>
        <mxCell id="Js2SkNxUxSmoYFZeB9Ga-64" style="edgeStyle=orthogonalEdgeStyle;rounded=0;orthogonalLoop=1;jettySize=auto;html=1;strokeColor=#FF3399;strokeWidth=2;fontSize=12;endArrow=block;endFill=1;entryX=0.5;entryY=1;entryDx=0;entryDy=0;exitX=0.5;exitY=0;exitDx=0;exitDy=0;startArrow=none;" edge="1" parent="1" source="Js2SkNxUxSmoYFZeB9Ga-62">
          <mxGeometry relative="1" as="geometry">
            <mxPoint x="839.5899999999999" y="310.0000000000001" as="sourcePoint" />
            <mxPoint x="839.5899999999999" y="287.5" as="targetPoint" />
            <Array as="points" />
          </mxGeometry>
        </mxCell>
        <mxCell id="Js2SkNxUxSmoYFZeB9Ga-67" style="edgeStyle=orthogonalEdgeStyle;rounded=0;orthogonalLoop=1;jettySize=auto;html=1;strokeColor=#FF3399;strokeWidth=2;fontSize=12;endArrow=block;endFill=1;entryX=0.5;entryY=1;entryDx=0;entryDy=0;" edge="1" parent="1" source="Js2SkNxUxSmoYFZeB9Ga-65" target="Js2SkNxUxSmoYFZeB9Ga-66">
          <mxGeometry relative="1" as="geometry" />
        </mxCell>
        <mxCell id="Js2SkNxUxSmoYFZeB9Ga-65" value="Action" style="rounded=1;whiteSpace=wrap;html=1;labelBackgroundColor=none;strokeWidth=1;fontSize=12;" vertex="1" parent="1">
          <mxGeometry x="910" y="450" width="70" height="30" as="geometry" />
        </mxCell>
        <mxCell id="Js2SkNxUxSmoYFZeB9Ga-66" value="Act Emb" style="rounded=0;whiteSpace=wrap;html=1;labelBackgroundColor=none;strokeWidth=1;fontSize=12;" vertex="1" parent="1">
          <mxGeometry x="880" y="380" width="80" height="30" as="geometry" />
        </mxCell>
        <mxCell id="Js2SkNxUxSmoYFZeB9Ga-75" style="edgeStyle=orthogonalEdgeStyle;rounded=0;orthogonalLoop=1;jettySize=auto;html=1;entryX=0.5;entryY=1;entryDx=0;entryDy=0;strokeColor=#FF3399;strokeWidth=2;fontSize=12;endArrow=block;endFill=1;" edge="1" parent="1" source="Js2SkNxUxSmoYFZeB9Ga-62" target="Js2SkNxUxSmoYFZeB9Ga-74">
          <mxGeometry relative="1" as="geometry" />
        </mxCell>
        <mxCell id="Js2SkNxUxSmoYFZeB9Ga-62" value="Tower MLP" style="rounded=0;whiteSpace=wrap;html=1;labelBackgroundColor=none;strokeWidth=1;fontSize=12;" vertex="1" parent="1">
          <mxGeometry x="760" y="260" width="160" height="27.5" as="geometry" />
        </mxCell>
        <mxCell id="Js2SkNxUxSmoYFZeB9Ga-72" style="edgeStyle=orthogonalEdgeStyle;rounded=0;orthogonalLoop=1;jettySize=auto;html=1;strokeColor=#FF3399;strokeWidth=2;fontSize=12;endArrow=block;endFill=1;entryX=0.5;entryY=1;entryDx=0;entryDy=0;" edge="1" parent="1">
          <mxGeometry relative="1" as="geometry">
            <mxPoint x="839.86" y="320.0000000000001" as="sourcePoint" />
            <mxPoint x="839.86" y="287.5" as="targetPoint" />
            <Array as="points">
              <mxPoint x="840" y="290" />
              <mxPoint x="840" y="290" />
            </Array>
          </mxGeometry>
        </mxCell>
        <mxCell id="Js2SkNxUxSmoYFZeB9Ga-74" value="$$Q$$" style="rounded=0;whiteSpace=wrap;html=1;labelBackgroundColor=none;strokeWidth=1;fontSize=12;strokeColor=none;" vertex="1" parent="1">
          <mxGeometry x="816.25" y="210" width="47.5" height="20" as="geometry" />
        </mxCell>
      </root>
    </mxGraphModel>
  </diagram>
</mxfile>
